<svg width="37" height="37" viewBox="0 0 37 37" fill="none" xmlns="http://www.w3.org/2000/svg">
<path d="M18.492 35.748C8.83 35.748 1 27.916 1 18.256C1 8.59404 8.832 0.764038 18.492 0.764038C28.154 0.764038 35.984 8.59604 35.984 18.256C35.984 27.916 28.152 35.748 18.492 35.748Z" stroke="#6B6B6A" stroke-width="1.5" stroke-miterlimit="10"/>
<path d="M15.8264 28.828H20.0843V18.166H23.0543L23.3703 14.596H20.0823C20.0823 14.596 20.0823 13.264 20.0823 12.562C20.0823 11.72 20.2523 11.388 21.0663 11.388C21.7203 11.388 23.3703 11.388 23.3703 11.388V7.68201C23.3703 7.68201 20.9403 7.68201 20.4223 7.68201C17.2543 7.68201 15.8244 9.07801 15.8244 11.748C15.8244 14.074 15.8244 14.594 15.8244 14.594H13.6104V18.21H15.8264V28.828Z" fill="#6B6B6A"/>
</svg>
