<svg width="42" height="41" viewBox="0 0 42 41" fill="none" xmlns="http://www.w3.org/2000/svg">
<path d="M20.7374 39.512C9.83755 39.512 1 30.89 1 20.256C1 9.622 9.83755 1 20.7374 1C31.6373 1 40.4748 9.622 40.4748 20.256C40.4748 30.89 31.6373 39.512 20.7374 39.512Z" stroke="#6B6B6A" stroke-width="1.5" stroke-miterlimit="10"/>
<path d="M20.737 11.6C23.6275 11.6 23.9698 11.61 25.1096 11.662C26.1654 11.708 26.7373 11.88 27.1186 12.026C27.6229 12.218 27.9837 12.446 28.363 12.816C28.7422 13.186 28.9759 13.538 29.1727 14.03C29.3203 14.402 29.4966 14.962 29.5458 15.99C29.5971 17.104 29.6094 17.438 29.6094 20.256C29.6094 23.074 29.5971 23.41 29.5458 24.522C29.4966 25.552 29.3224 26.11 29.1727 26.482C28.9759 26.974 28.7422 27.326 28.363 27.696C27.9837 28.066 27.6229 28.294 27.1186 28.486C26.7373 28.63 26.1633 28.802 25.1096 28.85C23.9678 28.9 23.6275 28.912 20.737 28.912C17.8465 28.912 17.5041 28.902 16.3643 28.85C15.3086 28.804 14.7366 28.632 14.3553 28.486C13.849 28.294 13.4902 28.066 13.111 27.696C12.7317 27.326 12.498 26.974 12.3012 26.482C12.1536 26.11 11.9773 25.552 11.9281 24.522C11.8769 23.408 11.8646 23.074 11.8646 20.256C11.8646 17.438 11.8748 17.102 11.9281 15.99C11.9773 14.96 12.1536 14.402 12.3012 14.03C12.498 13.538 12.7317 13.186 13.111 12.816C13.4902 12.446 13.851 12.218 14.3553 12.026C14.7366 11.882 15.3106 11.71 16.3643 11.662C17.5041 11.61 17.8485 11.6 20.737 11.6ZM20.737 9.698C17.7973 9.698 17.4303 9.71 16.2741 9.762C15.122 9.814 14.3348 9.992 13.6481 10.252C12.9367 10.522 12.332 10.882 11.7313 11.47C11.1307 12.056 10.7596 12.646 10.4829 13.34C10.2143 14.012 10.0319 14.778 9.98064 15.902C9.92734 17.028 9.91504 17.388 9.91504 20.256C9.91504 23.124 9.92734 23.482 9.98064 24.61C10.0339 25.734 10.2164 26.502 10.4829 27.172C10.7596 27.866 11.1286 28.456 11.7313 29.042C12.334 29.628 12.9367 29.99 13.6481 30.26C14.3369 30.52 15.122 30.7 16.2741 30.75C17.4283 30.802 17.7973 30.814 20.737 30.814C23.6767 30.814 24.0436 30.802 25.1998 30.75C26.3519 30.698 27.1391 30.52 27.8259 30.26C28.5372 29.99 29.142 29.63 29.7426 29.042C30.3433 28.454 30.7143 27.866 30.9911 27.172C31.2576 26.5 31.4421 25.732 31.4933 24.61C31.5466 23.484 31.5589 23.124 31.5589 20.256C31.5589 17.388 31.5466 17.03 31.4933 15.902C31.44 14.778 31.2576 14.01 30.9911 13.34C30.7143 12.646 30.3453 12.056 29.7426 11.47C29.1399 10.884 28.5372 10.522 27.8259 10.252C27.1371 9.992 26.3519 9.812 25.1998 9.762C24.0436 9.71 23.6767 9.698 20.737 9.698Z" fill="#6B6B6A"/>
<path d="M20.7372 14.834C17.6684 14.834 15.1797 17.262 15.1797 20.256C15.1797 23.25 17.6684 25.678 20.7372 25.678C23.8061 25.678 26.2948 23.25 26.2948 20.256C26.2948 17.26 23.8061 14.834 20.7372 14.834ZM20.7372 23.774C18.7446 23.774 17.1292 22.198 17.1292 20.254C17.1292 18.31 18.7446 16.734 20.7372 16.734C22.7298 16.734 24.3452 18.31 24.3452 20.254C24.3452 22.198 22.7298 23.774 20.7372 23.774Z" fill="#6B6B6A"/>
<path d="M27.8112 14.62C27.8112 15.32 27.229 15.888 26.5136 15.888C25.7961 15.888 25.2139 15.32 25.2139 14.62C25.2139 13.92 25.7961 13.354 26.5136 13.354C27.2311 13.352 27.8112 13.92 27.8112 14.62Z" fill="#6B6B6A"/>
</svg>
