<svg width="40" height="39" viewBox="0 0 40 39" fill="none" xmlns="http://www.w3.org/2000/svg">
<path d="M19.9543 37.984C9.487 37.984 1 29.706 1 19.492C1 9.28 9.487 1 19.9543 1C30.4216 1 38.9086 9.278 38.9086 19.492C38.9086 29.706 30.4236 37.984 19.9543 37.984Z" stroke="#6B6B6A" stroke-width="1.5" stroke-miterlimit="10"/>
<path d="M31.2538 12.2711C30.5212 12.6374 29.7153 12.7839 28.9095 12.9304C29.2758 12.8571 29.8618 12.1978 30.0816 11.9048C30.4479 11.4652 30.741 11.0256 30.8875 10.5128C30.8875 10.4396 30.8875 10.4396 30.8875 10.3663C30.8142 10.3663 30.8142 10.3663 30.741 10.3663C29.8618 10.8791 28.9095 11.1722 27.9571 11.4652C27.8838 11.4652 27.8106 11.4652 27.7373 11.3919C27.664 11.3187 27.5908 11.2454 27.5175 11.1722C27.078 10.8059 26.6384 10.5128 26.1988 10.3663C25.5395 10.0733 24.8069 10 24.1476 10C23.4882 10.0733 22.7556 10.2198 22.1695 10.5861C21.5835 10.8791 20.9974 11.3187 20.5578 11.9048C20.1183 12.4908 19.752 13.0769 19.6054 13.8095C19.4589 14.4689 19.4589 15.1282 19.5322 15.7875C19.5322 15.9341 19.5322 15.9341 19.4589 15.9341C15.6494 15.348 12.426 13.956 9.86185 11.0256C9.71533 10.8791 9.71533 10.8791 9.56881 11.0256C8.46991 12.7106 8.98273 15.4212 10.3747 16.8132C10.5944 16.9597 10.741 17.1795 10.9607 17.326C10.8875 17.326 9.93511 17.2527 9.12925 16.8132C8.98273 16.7399 8.98273 16.8132 8.98273 16.8864C8.98273 17.033 8.98273 17.2527 8.98273 17.4725C9.20251 19.1575 10.3747 20.7692 11.9864 21.4286C12.2062 21.5018 12.4259 21.5751 12.5725 21.6484C12.2062 21.5751 11.8399 21.6484 10.741 21.5751C10.5944 21.5751 10.5212 21.6484 10.5944 21.7216C11.4003 23.9194 13.1586 24.5788 14.404 24.9451C14.5505 24.9451 14.7703 24.9451 14.9168 25.0183C14.4772 25.6777 13.012 26.1905 12.2794 26.4103C11.034 26.8498 9.64207 27.0696 8.32339 26.9231C8.10361 26.9231 8.03035 26.9231 8.03035 26.9231C7.95709 26.9231 8.03034 26.9963 8.10361 27.0696C8.39665 27.2161 8.61643 27.4359 8.90947 27.5824C9.78859 28.022 10.6677 28.3883 11.5468 28.6081C16.3087 29.9267 21.6567 28.9744 25.2465 25.3846C28.0303 22.6007 29.056 18.7179 29.056 14.9084C29.056 14.7619 29.2025 14.6886 29.349 14.6154C30.0816 14.1026 30.6677 13.4432 31.1805 12.7106C31.327 12.5641 31.327 12.4176 31.327 12.3443C31.327 12.1978 31.327 12.2711 31.2538 12.2711Z" fill="#6B6B6A"/>
</svg>
